<svg width="27" height="28" viewBox="0 0 27 28" fill="none" xmlns="http://www.w3.org/2000/svg">
<g clip-path="url(#clip0_2426_4854)">
<path fill-rule="evenodd" clip-rule="evenodd" d="M17.2501 8.38758C16.1401 7.64589 14.835 7.25 13.5 7.25V0.5C16.17 0.5 18.7801 1.29176 21.0002 2.77516C23.2203 4.25856 24.9506 6.36697 25.9724 8.83375C26.9941 11.3005 27.2615 14.015 26.7406 16.6337C26.2197 19.2524 24.934 21.6579 23.0459 23.5459C21.1579 25.434 18.7524 26.7197 16.1337 27.2406C13.515 27.7615 10.8005 27.4941 8.33375 26.4724C5.86697 25.4506 3.75856 23.7203 2.27516 21.5002C0.791762 19.2801 0 16.67 0 14H6.75C6.75 15.335 7.14589 16.6401 7.88758 17.7501C8.62927 18.8601 9.68348 19.7253 10.9169 20.2362C12.1503 20.7471 13.5075 20.8807 14.8169 20.6203C16.1262 20.3598 17.3289 19.717 18.273 18.773C19.217 17.8289 19.8598 16.6262 20.1203 15.3169C20.3807 14.0075 20.2471 12.6503 19.7362 11.4169C19.2253 10.1835 18.3601 9.12927 17.2501 8.38758Z" fill="#007DFC"/>
<path fill-rule="evenodd" clip-rule="evenodd" d="M6.75 0.500003C6.75 1.38643 6.57541 2.26417 6.23619 3.08311C5.89697 3.90206 5.39977 4.64618 4.77297 5.27297C4.14618 5.89977 3.40206 6.39697 2.58311 6.73619C1.76416 7.07541 0.88642 7.25 2.95049e-07 7.25L0 14C1.77284 14 3.52833 13.6508 5.16623 12.9724C6.80413 12.2939 8.29237 11.2995 9.54591 10.0459C10.7995 8.79238 11.7939 7.30414 12.4724 5.66623C13.1508 4.02833 13.5 2.27284 13.5 0.5L6.75 0.500003Z" fill="#007DFC"/>
</g>
<defs>
<clipPath id="clip0_2426_4854">
<rect width="27" height="27" fill="white" transform="translate(0 0.5)"/>
</clipPath>
</defs>
</svg>
