<svg width="20" height="20" viewBox="0 0 20 20" fill="none" xmlns="http://www.w3.org/2000/svg">
<g clip-path="url(#clip0_2426_4910)">
<path d="M5.00008 7.50002V1.66669H15.0001V7.50002M5.00008 15H3.33341C2.89139 15 2.46746 14.8244 2.1549 14.5119C1.84234 14.1993 1.66675 13.7754 1.66675 13.3334V9.16669C1.66675 8.72466 1.84234 8.30074 2.1549 7.98818C2.46746 7.67562 2.89139 7.50002 3.33341 7.50002H16.6667C17.1088 7.50002 17.5327 7.67562 17.8453 7.98818C18.1578 8.30074 18.3334 8.72466 18.3334 9.16669V13.3334C18.3334 13.7754 18.1578 14.1993 17.8453 14.5119C17.5327 14.8244 17.1088 15 16.6667 15H15.0001M5.00008 11.6667H15.0001V18.3334H5.00008V11.6667Z" stroke="white" stroke-width="2" stroke-linecap="round" stroke-linejoin="round"/>
</g>
<defs>
<clipPath id="clip0_2426_4910">
<rect width="20" height="20" fill="white"/>
</clipPath>
</defs>
</svg>
