<svg width="49" height="48" viewBox="0 0 49 48" fill="none" xmlns="http://www.w3.org/2000/svg">
<g clip-path="url(#clip0_2426_4850)">
<path d="M32.1 33L25.8 26.7C25.3 27.1 24.725 27.4167 24.075 27.65C23.425 27.8833 22.7333 28 22 28C20.1833 28 18.6458 27.3708 17.3875 26.1125C16.1292 24.8542 15.5 23.3167 15.5 21.5C15.5 19.6833 16.1292 18.1458 17.3875 16.8875C18.6458 15.6292 20.1833 15 22 15C23.8167 15 25.3542 15.6292 26.6125 16.8875C27.8708 18.1458 28.5 19.6833 28.5 21.5C28.5 22.2333 28.3833 22.925 28.15 23.575C27.9167 24.225 27.6 24.8 27.2 25.3L33.5 31.6L32.1 33ZM22 26C23.25 26 24.3125 25.5625 25.1875 24.6875C26.0625 23.8125 26.5 22.75 26.5 21.5C26.5 20.25 26.0625 19.1875 25.1875 18.3125C24.3125 17.4375 23.25 17 22 17C20.75 17 19.6875 17.4375 18.8125 18.3125C17.9375 19.1875 17.5 20.25 17.5 21.5C17.5 22.75 17.9375 23.8125 18.8125 24.6875C19.6875 25.5625 20.75 26 22 26Z" fill="#49454F"/>
</g>
<defs>
<clipPath id="clip0_2426_4850">
<rect x="4.5" y="4" width="40" height="40" rx="20" fill="white"/>
</clipPath>
</defs>
</svg>
