<svg width="19" height="19" viewBox="0 0 19 19" fill="none" xmlns="http://www.w3.org/2000/svg">
<path fill-rule="evenodd" clip-rule="evenodd" d="M17.6093 17.7095C17.8593 17.4329 17.9997 17.0578 17.9997 16.6667C17.9997 16.2755 17.8593 15.9004 17.6093 15.6238L11.8853 9.29131L17.6093 2.95883C17.7367 2.82276 17.8382 2.66 17.9081 2.48003C17.978 2.30007 18.0148 2.10651 18.0163 1.91065C18.0178 1.71479 17.9841 1.52056 17.9171 1.33928C17.85 1.15799 17.751 0.993299 17.6258 0.854801C17.5006 0.716303 17.3518 0.606771 17.1879 0.532604C17.0241 0.458437 16.8485 0.421116 16.6714 0.422817C16.4944 0.424519 16.3194 0.465212 16.1568 0.542519C15.9941 0.619825 15.847 0.732199 15.724 0.873083L9.05731 8.24844C8.80735 8.52505 8.66693 8.90017 8.66693 9.29131C8.66693 9.68245 8.80735 10.0576 9.05731 10.3342L15.724 17.7095C15.974 17.9861 16.3131 18.1414 16.6666 18.1414C17.0202 18.1414 17.3593 17.9861 17.6093 17.7095ZM9.60931 17.7095C9.85927 17.4329 9.99969 17.0578 9.99969 16.6667C9.99969 16.2755 9.85927 15.9004 9.60931 15.6238L3.88531 9.29131L9.60931 2.95883C9.85218 2.68063 9.98658 2.30803 9.98354 1.92127C9.9805 1.53451 9.84028 1.16454 9.59307 0.891052C9.34586 0.617561 9.01144 0.462429 8.66184 0.459068C8.31225 0.455707 7.97544 0.604387 7.72397 0.873083L1.05731 8.24844C0.807345 8.52505 0.666926 8.90017 0.666926 9.29131C0.666926 9.68245 0.807345 10.0576 1.05731 10.3342L7.72397 17.7095C7.97401 17.9861 8.31309 18.1414 8.66664 18.1414C9.02019 18.1414 9.35927 17.9861 9.60931 17.7095Z" fill="#042719"/>
</svg>
